<svg width="51" height="51" viewBox="0 0 51 51" fill="none" xmlns="http://www.w3.org/2000/svg">
<g clip-path="url(#clip0_232_12)">
<path d="M1.0885 25.1948C1.0873 29.4798 2.21568 33.6638 4.36126 37.3516L0.883301 49.9517L13.8787 46.5707C17.4731 48.5123 21.5003 49.5296 25.5928 49.5299H25.6036C39.1136 49.5299 50.111 38.6216 50.1168 25.214C50.1194 18.717 47.5718 12.6077 42.9432 8.01135C38.3153 3.41542 32.1604 0.883012 25.6026 0.880047C12.091 0.880047 1.09427 11.7877 1.0887 25.1948" fill="url(#paint0_linear_232_12)"/>
<path d="M0.213164 25.1869C0.21177 29.6261 1.38059 33.9597 3.60267 37.7795L0 50.8314L13.4614 47.3292C17.1705 49.3358 21.3465 50.3937 25.5958 50.3953H25.6068C39.6015 50.3953 50.994 39.0947 51 25.207C51.0024 18.4766 48.3631 12.1477 43.5691 7.3867C38.7745 2.6263 32.3995 0.00276744 25.6068 0C11.6097 0 0.218742 11.2991 0.213164 25.1869ZM8.22973 37.1217L7.7271 36.33C5.61418 32.9964 4.49896 29.1441 4.50055 25.1885C4.50513 13.6453 13.9728 4.25395 25.6147 4.25395C31.2526 4.25633 36.5511 6.43707 40.5362 10.3937C44.5212 14.3508 46.714 19.6109 46.7126 25.2055C46.7074 36.7487 37.2396 46.1412 25.6068 46.1412H25.5984C21.8107 46.1392 18.0958 45.1299 14.8561 43.2225L14.0852 42.7688L6.09689 44.847L8.22973 37.1215V37.1217Z" fill="url(#paint1_linear_232_12)"/>
<path d="M19.2599 14.6572C18.7846 13.6089 18.2843 13.5877 17.8323 13.5694C17.4622 13.5535 17.039 13.5547 16.6163 13.5547C16.1931 13.5547 15.5056 13.7127 14.9245 14.3423C14.3428 14.9725 12.7036 16.4953 12.7036 19.5927C12.7036 22.6903 14.9773 25.6836 15.2943 26.1041C15.6116 26.5238 19.6836 33.0834 26.1327 35.6069C31.4925 37.704 32.5833 37.2869 33.7465 37.1818C34.9099 37.077 37.5006 35.6593 38.0291 34.1892C38.558 32.7193 38.558 31.4593 38.3994 31.196C38.2409 30.9337 37.8177 30.7761 37.1832 30.4614C36.5485 30.1465 33.4291 28.6235 32.8476 28.4133C32.2659 28.2034 31.843 28.0986 31.4198 28.729C30.9967 29.3584 29.7816 30.7761 29.4113 31.196C29.0413 31.6168 28.671 31.6692 28.0367 31.3543C27.4018 31.0384 25.3584 30.3745 22.9341 28.2299C21.0479 26.5611 19.7745 24.5004 19.4043 23.87C19.0342 23.2406 19.3647 22.8994 19.6828 22.5857C19.9679 22.3036 20.3176 21.8505 20.6351 21.4831C20.9515 21.1154 21.0571 20.8531 21.2686 20.4332C21.4804 20.013 21.3744 19.6453 21.216 19.3304C21.0571 19.0155 19.8241 15.9019 19.2599 14.6572Z" fill="white"/>
</g>
<defs>
<linearGradient id="paint0_linear_232_12" x1="2462.56" y1="4908.05" x2="2462.56" y2="0.880047" gradientUnits="userSpaceOnUse">
<stop stop-color="#1FAF38"/>
<stop offset="1" stop-color="#60D669"/>
</linearGradient>
<linearGradient id="paint1_linear_232_12" x1="2550" y1="5083.14" x2="2550" y2="0" gradientUnits="userSpaceOnUse">
<stop stop-color="#F9F9F9"/>
<stop offset="1" stop-color="white"/>
</linearGradient>
<clipPath id="clip0_232_12">
<rect width="51" height="51" fill="white"/>
</clipPath>
</defs>
</svg>
